 http://www.shotpix.com/images/50945120275323304112.jpg

General
Complete name                            : The Wanted - Glad You Came [Music Video] 720p [Sbyky].MP4
Format                                   : MPEG-4
Format profile                           : Base Media / Version 2
Codec ID                                 : mp42
File size                                : 50.5 MiB
Duration                                 : 3mn 19s
Overall bit rate mode                    : Variable
Overall bit rate                         : 2 131 Kbps
Encoded date                             : UTC 2011-06-09 13:43:57
Tagged date                              : UTC 2011-06-09 13:43:57
gsst                                     : 0
gstd                                     : 199000
gssd                                     : BB6B02904HH1341671302101871
gshh                                     :

Video
ID                                       : 1
Format                                   : AVC
Format/Info                              : Advanced Video Codec
Format profile                           : High@L3.1
Format settings, CABAC                   : Yes
Format settings, ReFrames                : 1 frame
Codec ID                                 : avc1
Codec ID/Info                            : Advanced Video Coding
Duration                                 : 3mn 19s
Bit rate                                 : 1 975 Kbps
Maximum bit rate                         : 3 792 Kbps
Width                                    : 1 280 pixels
Height                                   : 720 pixels
Display aspect ratio                     : 16:9
Frame rate mode                          : Constant
Frame rate                               : 25.000 fps
Color space                              : YUV
Chroma subsampling                       : 4:2:0
Bit depth                                : 8 bits
Scan type                                : Progressive
Bits/(Pixel*Frame)                       : 0.086
Stream size                              : 46.9 MiB (93%)
Tagged date                              : UTC 2011-06-09 13:44:01

Audio
ID                                       : 2
Format                                   : AAC
Format/Info                              : Advanced Audio Codec
Format profile                           : LC
Codec ID                                 : 40
Duration                                 : 3mn 18s
Bit rate mode                            : Variable
Bit rate                                 : 151 Kbps
Maximum bit rate                         : 216 Kbps
Channel(s)                               : 2 channels
Channel positions                        : Front: L R
Sampling rate                            : 44.1 KHz
Compression mode                         : Lossy
Stream size                              : 3.58 MiB (7%)
Title                                    : IsoMedia File Produced by Google, 5-11-2011
Encoded date                             : UTC 2011-06-09 13:43:59
Tagged date                              : UTC 2011-06-09 13:44:01

Shared By Sbyky 
http://www.shotpix.com/images/36391391396177178781.gif 
http://www.shotpix.com/images/54442018924177629170.gif